PathFileType	4	(X/Y/Z)	3_1_31_p1_0-324.trc
DataRate	CameraRate	NumFrames	NumMarkers	Units	OrigDataRate	OrigDataStartFrame	OrigNumFrames
60.0	60.0	7	27	m	60.0	121	325
Frame#	Time	RHip			RKnee			RAnkle			RBigToe			RSmallToe			RHeel			LHip			LKnee			LAnkle			LBigToe			LSmallToe			LHeel			Neck			Head			Nose			RShoulder			RElbow			RWrist			RThumb			RIndex			RPinky			LShoulder			LElbow			LWrist			LThumb			LIndex			LPinky			
		X1	Y1	Z1	X2	Y2	Z2	X3	Y3	Z3	X4	Y4	Z4	X5	Y5	Z5	X6	Y6	Z6	X7	Y7	Z7	X8	Y8	Z8	X9	Y9	Z9	X10	Y10	Z10	X11	Y11	Z11	X12	Y12	Z12	X13	Y13	Z13	X14	Y14	Z14	X15	Y15	Z15	X16	Y16	Z16	X17	Y17	Z17	X18	Y18	Z18	X19	Y19	Z19	X20	Y20	Z20	X21	Y21	Z21	X22	Y22	Z22	X23	Y23	Z23	X24	Y24	Z24	X25	Y25	Z25	X26	Y26	Z26	X27	Y27	Z27	
121	2.0166666666666666	0.22110440669273948	0.35144381140883807	0.9425046137505501	0.20104781554596468	0.42342728647614264	1.356786822630508	0.1529492384100549	0.505878785310127	1.7917902286499816	0.17468256351629327	0.2672376987133048	1.804612793521836	0.23453859320621265	0.36043063588426033	1.8466225049953218	0.13871257282121394	0.5039594256949206	1.8264879730495187	-0.015202966663964862	0.3476997523104476	0.9443856952039655	-0.01812891246172282	0.3871682006000632	1.3301994929805363	-0.02630349685971814	0.43601529299102676	1.7456905621475158	0.001642589108637939	0.2591352480772213	1.8173916312393263	-0.055979422314923734	0.28166645387232764	1.7975126750858845	-0.0089418454019359	0.49375852514345364	1.836077840556138	0.09088410162641812	0.3645227880421892	0.362744442421005	0.0917872415814153	0.2358762583717443	0.11117365640506785	0.09668929569902825	0.17604193938935517	0.25925597432104375	0.2813577150323546	0.3888597647747747	0.4287489890839602	0.4952205893616808	0.4263379933357503	0.4388056948676537	0.4067065375892678	0.41453372998530585	0.26849442378515587	0.3026588464739042	0.39567064343965885	0.2532058170765561	0.31297057167099784	0.4301792945419208	0.25239865611803014	0.3812103463089985	0.40789529033668226	0.2524010031857852	-0.10045272666551278	0.34340979594248233	0.43979423020389435	-0.3340076218057597	0.37327338502110485	0.514904733866017	-0.3581893300869216	0.3488080457844971	0.32432167866483863	-0.3018317831149061	0.37874411386508355	0.23987260774598412	-0.3297225777724173	0.38089348745802165	0.20729264193982982	-0.354274831452179	0.34384754427094777	0.2551600755812795
122	2.033333333333333	0.2209926971967721	0.3513188223417631	0.9425026679590782	0.20101288029030948	0.4232239281055037	1.3567688861998204	0.15880988164008392	0.4899207010729528	1.7826106973430147	0.1745520755336568	0.26717006269443466	1.8045003100138854	0.23414383220552043	0.3601193654352323	1.8460480123300016	0.1386825143779365	0.5041840103511689	1.8259041272512546	-0.017881199225476013	0.3348033593801686	0.9442853005064605	-0.017668109293283402	0.38875605460259977	1.335469218676218	-0.031132814696483407	0.43239376654415096	1.7530405844559604	0.001490939067703664	0.2591748348828543	1.8173933356546488	-0.05616651324144077	0.2815074370155762	1.7972151296925716	-0.009268131269103301	0.4931610019605287	1.8357148163960229	0.09234513052872183	0.3543082809845179	0.3617581185144214	0.08804585295232972	0.23464689445269274	0.11467271649275959	0.09668817683159664	0.17604636257344447	0.2592818937875969	0.28143704520193114	0.38880760949700244	0.4287200142548737	0.49528232047173415	0.4262527245677795	0.43887713210583146	0.4109648729869621	0.41616123345544226	0.27197339165436396	0.3005775449199719	0.384283256891336	0.25584885605400287	0.30960056522456214	0.41816334705918445	0.25178467258244597	0.3813192814166025	0.4081845532494824	0.25233366130489643	-0.10049185289322748	0.34332730892272145	0.4397812516726411	-0.33368321825257385	0.38698137118700965	0.5169610949963475	-0.3308904140065986	0.3608527306532624	0.31409720250268425	-0.2725730163982646	0.39111937706881533	0.24796801955243702	-0.2943659841260322	0.37759091295756764	0.21253424631003545	-0.3377421436397901	0.4057080901892205	0.2606293949441735
123	2.05	0.22087871647594065	0.3513842573746088	0.9425820822071829	0.201303520675595	0.42206101099638305	1.360346905056817	0.15340528484674243	0.5045143762525848	1.795410297010455	0.17450915607954595	0.2670123837639796	1.8044047970810242	0.23398307150793865	0.35978286684602867	1.845739229889745	0.13868613428223725	0.5042674343100738	1.8259427022183758	-0.01801097791958463	0.3345001186307618	0.9442111648929201	-0.017686500720134477	0.3884264267316246	1.335410702667243	-0.031146401788943928	0.43247975010846934	1.7530947947558324	0.007824340265810198	0.24528393949659255	1.8085899487635253	-0.05611482118702934	0.2813221169684589	1.7974705738295387	-0.009367501681026154	0.49309561598906	1.8353978141079994	0.08866192524863191	0.35260577189395137	0.3617653402216921	0.08800998886430679	0.23495017687129757	0.11462257650698482	0.09684728015502099	0.17567875967258817	0.26259288223829047	0.2773657467003107	0.3869934642620965	0.42862401716240095	0.4953148639408256	0.426039456042486	0.43886028903476304	0.4108358040417224	0.41633603790388374	0.268534738389241	0.3006475830781352	0.38409527403222604	0.2558951804066308	0.3106082054637621	0.3938252331998261	0.2503097723690174	0.3813417290390718	0.407818908506753	0.25244249524664075	-0.10046583905139662	0.34331067271734067	0.4400103424631052	-0.32585353827525904	0.3856105362822711	0.5209344991104621	-0.31155258027567134	0.37729226213615413	0.31877779248396076	-0.24593659155840386	0.39103545889900715	0.25138913267467283	-0.2672640940712786	0.3888745068283138	0.2165240733802284	-0.2954254465687958	0.3793489966534074	0.2585760888018251
124	2.066666666666667	0.21820933178117632	0.3390284974152516	0.9392017294097625	0.20050536904831606	0.4201662817299285	1.3550411311939967	0.159313722298008	0.4887583723804699	1.7862234710263556	0.17444315430525184	0.2669819278370367	1.8043287050616679	0.23385910121923698	0.35990610811280116	1.8457436818064274	0.1387351451097469	0.504554602655959	1.8256059628088446	-0.018106676065980397	0.33439280679744704	0.944031571046181	-0.01825194060554537	0.38699481450602574	1.330129127811687	-0.03195444575331999	0.43070492140111344	1.7467582276066822	0.007934446629353428	0.2451362762094881	1.8086899714675049	-0.05609729981709633	0.28129695014218353	1.797497863426454	-0.010545120781464213	0.49117565918153866	1.8311213119060856	0.09100796780182056	0.36431570253970086	0.36270575269124367	0.08986747772283855	0.24553487049916067	0.11462629694243097	0.0968899932706881	0.17669361333482733	0.26595935662425163	0.2814198952169254	0.3886905564295784	0.4287539298704118	0.49535016749124805	0.4258521361098842	0.43887950864748165	0.4146864209764477	0.4281037019692206	0.26946011727919805	0.3029520793487593	0.3967076801203998	0.25911482825415233	0.3209733274236322	0.41941538143347473	0.2517464546639867	0.3856199562771613	0.4088324085897658	0.25275729685365905	-0.10053653631758724	0.34435454258749953	0.4365618544448026	-0.32599280127811203	0.38568742113219806	0.5164089781186509	-0.2937681122422204	0.36960807948624047	0.31363441300309863	-0.20857673239512506	0.3446557395662967	0.2559409095194727	-0.23214311080371966	0.36124112896583516	0.21569704770530557	-0.27711484190442415	0.3575661730319287	0.25687994064969943
125	2.0833333333333335	0.2176911879095441	0.33745437484014895	0.9348355916681548	0.19653785900775744	0.41809939740348345	1.3543410407201772	0.15935366420579344	0.4886582154684434	1.7862963711027944	0.17440235885886238	0.26684510955173	1.8042995514630378	0.23078917499127763	0.34718584607827374	1.8385309503823464	0.13871306704667666	0.5044664476064282	1.8254291354456946	-0.020013787688833648	0.32193050300217174	0.9405574363620951	-0.018235563402645177	0.3867925780216537	1.33006307920636	-0.031227397600083785	0.4320936049868106	1.7379906572105734	0.0014456468078137402	0.25872017764853183	1.8173046423024404	-0.056456486279578444	0.2811205935023157	1.7973449875360374	-0.013922355287911343	0.5218200457675012	1.8409551293520479	0.09478849339852048	0.36615415571280424	0.36274816998203374	0.08988835850379147	0.24530392625598169	0.11771018176142489	0.09688599528710089	0.176864248903458	0.2659836767555112	0.2815392705281509	0.3887607515725411	0.4286316385199065	0.49961717882241863	0.42688730887698006	0.43907465983041793	0.41470800894373927	0.4277341918022918	0.26943629437274114	0.3029639534500385	0.3958540313582137	0.2536542883883425	0.32468595558048075	0.4309188208062767	0.2523189069346316	0.3894819448850448	0.39525175171566407	0.2522636620876979	-0.1002627133805043	0.3439088921079113	0.4399622561553885	-0.3264582851167073	0.3734155922793309	0.514733248743037	-0.28573936621067736	0.3693663579071707	0.3173171669845046	-0.2013333086303742	0.3443400384949069	0.25942664447910696	-0.21307367745333752	0.3273314744025592	0.22266566355929476	-0.26691361806450176	0.34977732559231567	0.26074842141452953
126	2.1	0.21709943304876247	0.33731462090912245	0.9384221264403768	0.19652532926354394	0.4181110212828879	1.354353773170835	0.15933184745156304	0.4887556087507428	1.786420817267956	0.1743767956866188	0.2669491087698828	1.8043621068732976	0.23369198679759054	0.35977461267665206	1.8457254837181596	0.1386809266292443	0.5044265588943849	1.8256390679499368	-0.020067118491274318	0.3218506830120614	0.9404722107937804	-0.01822387358537643	0.3868176688500528	1.329942292430004	-0.030913248550358992	0.4308601013933475	1.7413616191576424	0.0015040275195315565	0.25880495346230775	1.8172901028398682	-0.05636536608704435	0.28120319274250727	1.7974035640422559	-0.01438132157223022	0.5217448753086928	1.8406985411663639	0.09490723373341375	0.36611217640989896	0.3627289955167569	0.09009900762755366	0.2462424963396393	0.12091554047853226	0.09692923008019537	0.17685531139088437	0.26595743903833047	0.2816213780785314	0.38850551123630894	0.4286074500589129	0.5075199450875207	0.41394980201137893	0.4373115456836825	0.4182073243702219	0.438881079730437	0.26995546726052033	0.30291630442663076	0.39565052856337657	0.2535730495679893	0.3248014285173555	0.4307762075910735	0.25515963329812347	0.3897672354170043	0.395110426933762	0.2521798259098462	-0.10012180163384286	0.34395415235818333	0.4399431352035941	-0.32633844271069784	0.38632591123279914	0.516307383668452	-0.2793636104233636	0.3592282441178805	0.32028739586758276	-0.19420019386063067	0.3442394511469123	0.25927697500559155	-0.20722923048916433	0.31552643534012176	0.23210579980279064	-0.25704583254924346	0.3397517560694146	0.26339394157631996
127	2.1166666666666667	0.21763365201460794	0.3371904058717666	0.9348135938255175	0.1961809923141272	0.41918226979666895	1.350938146099406	0.15035014088786539	0.4908417123725729	1.7883080454147833	0.17445972615952668	0.26694068380664043	1.8045228762361278	0.23083381939832726	0.34765886976956384	1.8390801847097495	0.1353985621311919	0.4905832958794562	1.8184364020098056	-0.020065870618163225	0.32187270098596754	0.9404582809451314	-0.01821209169965595	0.3868452033598862	1.3298461032006976	-0.03214452314501268	0.4308836981400013	1.7465095907006245	0.005688216483915366	0.23223070371426727	1.801216734266393	-0.056431582485022155	0.2809897337886152	1.7976327679360162	-0.015710999276549543	0.5213547558264905	1.8473285231327468	0.0986383386666338	0.36764069076023703	0.362743486724025	0.09020105697117774	0.24557363718422853	0.11784628429722288	0.09706538873649205	0.17661537216541062	0.26591465407297926	0.28604846879434664	0.37538423696248063	0.42705955045704	0.5075306037238055	0.41366755003613925	0.43734273626056286	0.4220448503601173	0.4252168193661832	0.2688726694211856	0.302829864151188	0.39573763064952183	0.2534881994146843	0.324334239858682	0.4304775742473082	0.2552835012597766	0.38972061219856774	0.3951564683061291	0.2518659979694774	-0.09632701621811571	0.3468034651866619	0.44019845517119777	-0.32632621092628766	0.384547775414132	0.5121556150286752	-0.27954204612420486	0.3608084195542137	0.32075005669440126	-0.19428007743944298	0.34413757084041013	0.25929142017004986	-0.20725545619612992	0.3156891713241797	0.22831073989007147	-0.26021077227727973	0.33837232280644974	0.2633529595849535
